# xmcd
#
# Track frame offsets: 
#        150
#        20357
#        41172
#        86622
#
# Disc length: 3005 seconds
#
# Revision: 1
# Processed by: cddbd v1.5PL3 Copyright (c) Steve Scherf et al.
# Submitted via: ExactAudioCopy v0.95a4
#
DISCID=280bbb04
DTITLE=Lighthouse Family - Free
DYEAR=1900
DGENRE=Dance
TTITLE0=Free (Single version)
TTITLE1=You're A Star
TTITLE2=Free (Phaats 'n' Small Vocal Mix)
TTITLE3=Data Track
EXTD=
EXTT0=
EXTT1=
EXTT2=
EXTT3=
PLAYORDER=
